REM DIRINDEX 1\3,1\2\4,1\2\5,1\2\6
REM DIRNAME folder01,folder02,folder03,folder04,folder05,folder06
TITLE ""
FILE "111.mp3" MP3
  TRACK 01 AUDIO
    TITLE "4:cjc137_4581"
    INDEX 01 00:00:00
  TRACK 02 AUDIO
    TITLE "0:"
    INDEX 01 00:01:13
  TRACK 03 AUDIO
    TITLE "6:cjc137_4582"
    INDEX 01 00:01:22
  TRACK 04 AUDIO
    TITLE "0:"
    INDEX 01 00:02:24
  TRACK 05 AUDIO
    TITLE "5:cjc137_4583"
    INDEX 01 00:02:34
  TRACK 06 AUDIO
    TITLE "0:"
    INDEX 01 00:03:43
  TRACK 07 AUDIO
    TITLE "4:cjc137_4584"
    INDEX 01 00:04:54
  TRACK 08 AUDIO
    TITLE "0:"
    INDEX 01 00:05:71
  TRACK 09 AUDIO
    TITLE "6:cjc137_4585"
    INDEX 01 00:06:02
  TRACK 10 AUDIO
    TITLE "0:"
    INDEX 01 00:07:17
  TRACK 11 AUDIO
    TITLE "5:cjc137_4586"
    INDEX 01 00:07:23
  TRACK 12 AUDIO
    TITLE "0:"
    INDEX 01 00:08:40
  TRACK 13 AUDIO
    TITLE "4:cjc137_4587"
    INDEX 01 00:09:47
  TRACK 14 AUDIO
    TITLE "0:"
    INDEX 01 00:10:61
  TRACK 15 AUDIO
    TITLE "6:cjc137_4588"
    INDEX 01 00:11:01
  TRACK 16 AUDIO
    TITLE "0:"
    INDEX 01 00:12:07
  TRACK 17 AUDIO
    TITLE "5:cjc137_4589"
    INDEX 01 00:12:14
  TRACK 18 AUDIO
    TITLE "0:"
    INDEX 01 00:13:28
  TRACK 19 AUDIO
    TITLE "4:cjc137_4590"
    INDEX 01 00:14:49
  TRACK 20 AUDIO
    TITLE "0:"
    INDEX 01 00:15:56
  TRACK 21 AUDIO
    TITLE "6:cjc137_4591"
    INDEX 01 00:15:64
  TRACK 22 AUDIO
    TITLE "0:"
    INDEX 01 00:17:00
  TRACK 23 AUDIO
    TITLE "5:cjc137_4592"
    INDEX 01 00:17:04
  TRACK 24 AUDIO
    TITLE "0:"
    INDEX 01 00:18:13
  TRACK 25 AUDIO
    TITLE "4:cjc137_4593"
    INDEX 01 00:19:22
  TRACK 26 AUDIO
    TITLE "0:"
    INDEX 01 00:20:51
  TRACK 27 AUDIO
    TITLE "6:cjc137_4594"
    INDEX 01 00:20:63
  TRACK 28 AUDIO
    TITLE "0:"
    INDEX 01 00:22:07
  TRACK 29 AUDIO
    TITLE "5:cjc137_4595"
    INDEX 01 00:22:13
  TRACK 30 AUDIO
    TITLE "0:"
    INDEX 01 00:23:40
  TRACK 31 AUDIO
    TITLE "4:cjc137_4596"
    INDEX 01 00:24:53
  TRACK 32 AUDIO
    TITLE "0:"
    INDEX 01 00:25:72
  TRACK 33 AUDIO
    TITLE "6:cjc137_4597"
    INDEX 01 00:26:05
  TRACK 34 AUDIO
    TITLE "0:"
    INDEX 01 00:27:10
  TRACK 35 AUDIO
    TITLE "5:cjc137_4598"
    INDEX 01 00:27:16
  TRACK 36 AUDIO
    TITLE "0:"
    INDEX 01 00:28:37
  TRACK 37 AUDIO
    TITLE "4:cjc137_4599"
    INDEX 01 00:29:46
  TRACK 38 AUDIO
    TITLE "0:"
    INDEX 01 00:30:73
  TRACK 39 AUDIO
    TITLE "6:cjc137_4600"
    INDEX 01 00:31:04
  TRACK 40 AUDIO
    TITLE "0:"
    INDEX 01 00:32:09
  TRACK 41 AUDIO
    TITLE "5:cjc137_4601"
    INDEX 01 00:32:15
  TRACK 42 AUDIO
    TITLE "0:"
    INDEX 01 00:33:42
  TRACK 43 AUDIO
    TITLE "4:cjc137_4602"
    INDEX 01 00:34:51
  TRACK 44 AUDIO
    TITLE "0:"
    INDEX 01 00:35:64
  TRACK 45 AUDIO
    TITLE "6:cjc137_4603"
    INDEX 01 00:35:70
  TRACK 46 AUDIO
    TITLE "0:"
    INDEX 01 00:37:05
  TRACK 47 AUDIO
    TITLE "5:cjc137_4604"
    INDEX 01 00:37:14
  TRACK 48 AUDIO
    TITLE "0:"
    INDEX 01 00:38:26
  TRACK 49 AUDIO
    TITLE "4:cjc137_4605"
    INDEX 01 00:39:37
  TRACK 50 AUDIO
    TITLE "0:"
    INDEX 01 00:40:46
  TRACK 51 AUDIO
    TITLE "6:cjc137_4606"
    INDEX 01 00:40:50
  TRACK 52 AUDIO
    TITLE "0:"
    INDEX 01 00:41:61
  TRACK 53 AUDIO
    TITLE "5:cjc137_4607"
    INDEX 01 00:41:69
  TRACK 54 AUDIO
    TITLE "0:"
    INDEX 01 00:43:03
  TRACK 55 AUDIO
    TITLE "4:cjc137_4608"
    INDEX 01 00:44:09
  TRACK 56 AUDIO
    TITLE "0:"
    INDEX 01 00:45:39
  TRACK 57 AUDIO
    TITLE "6:cjc137_4609"
    INDEX 01 00:45:43
  TRACK 58 AUDIO
    TITLE "0:"
    INDEX 01 00:46:58
  TRACK 59 AUDIO
    TITLE "5:cjc137_4610"
    INDEX 01 00:46:64
  TRACK 60 AUDIO
    TITLE "0:"
    INDEX 01 00:48:22
  TRACK 61 AUDIO
    TITLE "4:cjc137_4611"
    INDEX 01 00:49:29
  TRACK 62 AUDIO
    TITLE "0:"
    INDEX 01 00:50:35
  TRACK 63 AUDIO
    TITLE "6:cjc137_4612"
    INDEX 01 00:50:42
  TRACK 64 AUDIO
    TITLE "0:"
    INDEX 01 00:51:32
  TRACK 65 AUDIO
    TITLE "5:cjc137_4613"
    INDEX 01 00:51:38
  TRACK 66 AUDIO
    TITLE "0:"
    INDEX 01 00:52:45
  TRACK 67 AUDIO
    TITLE "4:cjc137_4614"
    INDEX 01 00:53:55
  TRACK 68 AUDIO
    TITLE "0:"
    INDEX 01 00:55:34
  TRACK 69 AUDIO
    TITLE "6:cjc137_4615"
    INDEX 01 00:55:42
  TRACK 70 AUDIO
    TITLE "0:"
    INDEX 01 00:56:74
  TRACK 71 AUDIO
    TITLE "5:cjc137_4616"
    INDEX 01 00:57:03
  TRACK 72 AUDIO
    TITLE "0:"
    INDEX 01 00:58:58
  TRACK 73 AUDIO
    TITLE "4:cjc137_4617"
    INDEX 01 00:59:67
  TRACK 74 AUDIO
    TITLE "0:"
    INDEX 01 01:01:01
  TRACK 75 AUDIO
    TITLE "6:cjc137_4618"
    INDEX 01 01:01:11
  TRACK 76 AUDIO
    TITLE "0:"
    INDEX 01 01:02:61
  TRACK 77 AUDIO
    TITLE "5:cjc137_4619"
    INDEX 01 01:02:67
  TRACK 78 AUDIO
    TITLE "0:"
    INDEX 01 01:04:03
  TRACK 79 AUDIO
    TITLE "4:cjc137_4620"
    INDEX 01 01:05:13
  TRACK 80 AUDIO
    TITLE "0:"
    INDEX 01 01:06:43
  TRACK 81 AUDIO
    TITLE "6:cjc137_4621"
    INDEX 01 01:06:51
  TRACK 82 AUDIO
    TITLE "0:"
    INDEX 01 01:08:29
  TRACK 83 AUDIO
    TITLE "5:cjc137_4622"
    INDEX 01 01:08:42
  TRACK 84 AUDIO
    TITLE "0:"
    INDEX 01 01:09:73
